<svg xmlns="http://www.w3.org/2000/svg" xmlns:xlink="http://www.w3.org/1999/xlink" width="1024" zoomAndPan="magnify" viewBox="0 0 768 767.999994" height="1024" preserveAspectRatio="xMidYMid meet" version="1.0"><path fill="#ffde59" d="M 709.378906 0 L 525.550781 0 L 525.550781 682.824219 L 475.996094 682.824219 L 475.996094 173.085938 L 292.167969 173.085938 L 292.167969 682.824219 L 242.613281 682.824219 L 242.613281 307.242188 L 58.785156 307.242188 L 58.785156 682.824219 L 0 682.824219 L 0 768 L 768 768 L 768 682.824219 L 709.378906 682.824219 Z M 558.230469 32.679688 L 676.699219 32.679688 L 676.699219 682.824219 L 558.230469 682.824219 Z M 324.683594 205.765625 L 443.152344 205.765625 L 443.152344 682.824219 L 324.683594 682.824219 Z M 91.300781 339.921875 L 209.769531 339.921875 L 209.769531 682.824219 L 91.300781 682.824219 Z M 735.320312 715.507812 L 735.320312 735.320312 L 32.679688 735.320312 L 32.679688 715.507812 Z M 735.320312 715.507812 " fill-opacity="1" fill-rule="nonzero"/></svg>