<svg xmlns="http://www.w3.org/2000/svg" xmlns:xlink="http://www.w3.org/1999/xlink" width="1080" zoomAndPan="magnify" viewBox="0 0 810 809.999993" height="1080" preserveAspectRatio="xMidYMid meet" version="1.0"><path fill="#ffde59" d="M 718.28125 289.726562 L 698.828125 289.726562 L 698.828125 195.878906 C 698.828125 195.289062 698.738281 194.703125 698.667969 194.105469 C 698.636719 190.382812 697.445312 186.722656 694.890625 183.824219 L 538.714844 5.433594 C 538.667969 5.386719 538.617188 5.367188 538.589844 5.320312 C 537.660156 4.28125 536.574219 3.414062 535.425781 2.667969 C 535.082031 2.441406 534.742188 2.25 534.386719 2.050781 C 533.390625 1.511719 532.335938 1.054688 531.25 0.730469 C 530.957031 0.652344 530.695312 0.53125 530.402344 0.453125 C 529.21875 0.175781 527.992188 0 526.757812 0 L 142.941406 0 C 125.414062 0 111.179688 14.253906 111.179688 31.765625 L 111.179688 289.722656 L 91.730469 289.722656 C 66.660156 289.722656 46.328125 310.046875 46.328125 335.125 L 46.328125 571.21875 C 46.328125 596.277344 66.660156 616.617188 91.730469 616.617188 L 111.179688 616.617188 L 111.179688 778.234375 C 111.179688 795.75 125.414062 810 142.941406 810 L 667.058594 810 C 684.570312 810 698.824219 795.75 698.824219 778.234375 L 698.824219 616.621094 L 718.273438 616.621094 C 743.335938 616.621094 763.667969 596.277344 763.667969 571.222656 L 763.667969 335.128906 C 763.671875 310.046875 743.351562 289.726562 718.28125 289.726562 Z M 667.058594 769.625 L 142.941406 769.625 L 142.941406 616.621094 L 667.058594 616.621094 Z M 234.613281 565.234375 L 308.753906 322.617188 L 380.730469 322.617188 L 455.964844 565.234375 L 396.953125 565.234375 L 378.214844 502.953125 L 308.753906 502.953125 L 291.476562 565.234375 Z M 488.351562 565.234375 L 488.351562 322.617188 L 543.445312 322.617188 L 543.445312 565.234375 Z M 667.058594 289.726562 L 142.941406 289.726562 L 142.941406 31.765625 L 510.871094 31.765625 L 510.871094 194.277344 C 510.871094 203.058594 517.988281 210.160156 526.753906 210.160156 L 667.058594 210.160156 Z M 667.058594 289.726562 " fill-opacity="1" fill-rule="nonzero"/><path fill="#ffde59" d="M 355.1875 410.445312 C 350.875 396.050781 346.554688 378.046875 342.949219 363.652344 L 342.226562 363.652344 C 338.636719 378.046875 335.03125 396.410156 331.074219 410.445312 L 316.679688 461.925781 L 370.3125 461.925781 Z M 355.1875 410.445312 " fill-opacity="1" fill-rule="nonzero"/></svg>