<svg xmlns="http://www.w3.org/2000/svg" xmlns:xlink="http://www.w3.org/1999/xlink" width="1300" zoomAndPan="magnify" viewBox="0 0 974.88 974.999993" height="1300" preserveAspectRatio="xMidYMid meet" version="1.0"><path fill="#ffde59" d="M 487.441406 548.429688 C 353.058594 548.429688 243.71875 657.769531 243.71875 792.148438 L 243.71875 883.546875 C 243.71875 900.363281 257.367188 914.011719 274.183594 914.011719 L 700.695312 914.011719 C 717.511719 914.011719 731.160156 900.363281 731.160156 883.546875 L 731.160156 792.148438 C 731.160156 657.769531 621.820312 548.429688 487.441406 548.429688 Z M 670.230469 853.078125 L 609.300781 853.078125 L 609.300781 822.613281 C 609.300781 805.796875 595.652344 792.148438 578.835938 792.148438 C 562.019531 792.148438 548.371094 805.796875 548.371094 822.613281 L 548.371094 853.078125 L 426.511719 853.078125 L 426.511719 822.613281 C 426.511719 805.796875 412.863281 792.148438 396.046875 792.148438 C 379.226562 792.148438 365.578125 805.796875 365.578125 822.613281 L 365.578125 853.078125 L 304.648438 853.078125 L 304.648438 792.148438 C 304.648438 691.339844 386.632812 609.359375 487.441406 609.359375 C 588.25 609.359375 670.230469 691.339844 670.230469 792.148438 Z M 670.230469 853.078125 " fill-opacity="1" fill-rule="nonzero"/><path fill="#ffde59" d="M 365.578125 369.84375 L 365.578125 422.367188 C 365.578125 475.070312 408.476562 517.964844 461.179688 517.964844 L 513.699219 517.964844 C 566.40625 517.964844 609.300781 475.070312 609.300781 422.367188 L 609.300781 369.84375 C 609.300781 317.140625 566.40625 274.246094 513.699219 274.246094 L 461.179688 274.246094 C 408.476562 274.246094 365.578125 317.140625 365.578125 369.84375 Z M 426.511719 369.84375 C 426.511719 350.742188 442.078125 335.175781 461.179688 335.175781 L 513.699219 335.175781 C 532.800781 335.175781 548.371094 350.742188 548.371094 369.84375 L 548.371094 422.367188 C 548.371094 441.46875 532.800781 457.035156 513.699219 457.035156 L 461.179688 457.035156 C 442.078125 457.035156 426.511719 441.46875 426.511719 422.367188 Z M 426.511719 369.84375 " fill-opacity="1" fill-rule="nonzero"/><path fill="#ffde59" d="M 670.230469 335.175781 C 653.414062 335.175781 639.765625 348.824219 639.765625 365.640625 C 639.765625 382.457031 653.414062 396.105469 670.230469 396.105469 C 771.039062 396.105469 853.019531 478.085938 853.019531 578.894531 L 853.019531 639.824219 L 792.089844 639.824219 L 792.089844 609.359375 C 792.089844 592.542969 778.441406 578.894531 761.625 578.894531 C 744.808594 578.894531 731.160156 592.542969 731.160156 609.359375 L 731.160156 670.289062 C 731.160156 687.105469 744.808594 700.753906 761.625 700.753906 L 883.484375 700.753906 C 900.300781 700.753906 913.949219 687.105469 913.949219 670.289062 L 913.949219 578.894531 C 913.949219 444.515625 804.609375 335.175781 670.230469 335.175781 Z M 670.230469 335.175781 " fill-opacity="1" fill-rule="nonzero"/><path fill="#ffde59" d="M 643.96875 304.710938 L 696.492188 304.710938 C 749.195312 304.710938 792.089844 261.816406 792.089844 209.109375 L 792.089844 156.589844 C 792.089844 103.882812 749.195312 60.988281 696.492188 60.988281 L 643.96875 60.988281 C 591.265625 60.988281 548.371094 103.882812 548.371094 156.589844 L 548.371094 209.109375 C 548.371094 261.816406 591.265625 304.710938 643.96875 304.710938 Z M 609.300781 156.589844 C 609.300781 137.488281 624.867188 121.921875 643.96875 121.921875 L 696.492188 121.921875 C 715.59375 121.921875 731.160156 137.488281 731.160156 156.589844 L 731.160156 209.109375 C 731.160156 228.210938 715.59375 243.78125 696.492188 243.78125 L 643.96875 243.78125 C 624.867188 243.78125 609.300781 228.210938 609.300781 209.109375 Z M 609.300781 156.589844 " fill-opacity="1" fill-rule="nonzero"/><path fill="#ffde59" d="M 91.394531 700.753906 L 213.253906 700.753906 C 230.070312 700.753906 243.71875 687.105469 243.71875 670.289062 L 243.71875 609.359375 C 243.71875 592.542969 230.070312 578.894531 213.253906 578.894531 C 196.4375 578.894531 182.789062 592.542969 182.789062 609.359375 L 182.789062 639.824219 L 121.859375 639.824219 L 121.859375 578.894531 C 121.859375 478.085938 203.839844 396.105469 304.648438 396.105469 C 321.464844 396.105469 335.113281 382.457031 335.113281 365.640625 C 335.113281 348.824219 321.464844 335.175781 304.648438 335.175781 C 170.269531 335.175781 60.929688 444.515625 60.929688 578.894531 L 60.929688 670.289062 C 60.929688 687.105469 74.578125 700.753906 91.394531 700.753906 Z M 91.394531 700.753906 " fill-opacity="1" fill-rule="nonzero"/><path fill="#ffde59" d="M 278.390625 304.710938 L 330.910156 304.710938 C 383.617188 304.710938 426.511719 261.816406 426.511719 209.109375 L 426.511719 156.589844 C 426.511719 103.882812 383.617188 60.988281 330.910156 60.988281 L 278.390625 60.988281 C 225.683594 60.988281 182.789062 103.882812 182.789062 156.589844 L 182.789062 209.109375 C 182.789062 261.816406 225.683594 304.710938 278.390625 304.710938 Z M 243.71875 156.589844 C 243.71875 137.488281 259.289062 121.921875 278.390625 121.921875 L 330.910156 121.921875 C 350.011719 121.921875 365.578125 137.488281 365.578125 156.589844 L 365.578125 209.109375 C 365.578125 228.210938 350.011719 243.78125 330.910156 243.78125 L 278.390625 243.78125 C 259.289062 243.78125 243.71875 228.210938 243.71875 209.109375 Z M 243.71875 156.589844 " fill-opacity="1" fill-rule="nonzero"/></svg>